<?xml version="1.0" encoding="UTF-8" standalone="no"?>
<!-- Created with Inkscape (http://www.inkscape.org/) -->

<svg
   width="64.476883mm"
   height="65.95121mm"
   viewBox="0 0 64.476883 65.95121"
   version="1.1"
   id="svg1"
   xml:space="preserve"
   inkscape:version="1.3.2 (091e20e, 2023-11-25, custom)"
   sodipodi:docname="icon.svg"
   xmlns:inkscape="http://www.inkscape.org/namespaces/inkscape"
   xmlns:sodipodi="http://sodipodi.sourceforge.net/DTD/sodipodi-0.dtd"
   xmlns="http://www.w3.org/2000/svg"
   xmlns:svg="http://www.w3.org/2000/svg"><sodipodi:namedview
     id="namedview1"
     pagecolor="#ffffff"
     bordercolor="#000000"
     borderopacity="0.25"
     inkscape:showpageshadow="2"
     inkscape:pageopacity="0.0"
     inkscape:pagecheckerboard="0"
     inkscape:deskcolor="#d1d1d1"
     inkscape:document-units="mm"
     showgrid="true"
     inkscape:zoom="0.43543761"
     inkscape:cx="714.22402"
     inkscape:cy="500.64577"
     inkscape:window-width="2400"
     inkscape:window-height="1261"
     inkscape:window-x="2391"
     inkscape:window-y="-9"
     inkscape:window-maximized="1"
     inkscape:current-layer="layer13"><inkscape:grid
       id="grid6"
       units="mm"
       originx="-122.63594"
       originy="-198.72283"
       spacingx="0.99999998"
       spacingy="1"
       empcolor="#0099e5"
       empopacity="0.30196078"
       color="#0099e5"
       opacity="0.14901961"
       empspacing="5"
       dotted="false"
       gridanglex="30"
       gridanglez="30"
       visible="true" /></sodipodi:namedview><defs
     id="defs1" /><g
     inkscape:groupmode="layer"
     id="layer10"
     inkscape:label="weighted"
     style="display:inline"
     transform="translate(-122.63594,-198.72283)"><path
       style="fill:#e98888;fill-opacity:1;stroke:#413835;stroke-width:1.5;stroke-linecap:round;stroke-linejoin:round;stroke-dasharray:none;stroke-opacity:1"
       d="m 107.8027,210.78116 8.67573,2.01045 -0.75677,3.77484 4.65927,0.56529 1.87823,-11.42479 -4.12131,-0.21881 -1.88283,3.2779 -7.35363,-1.46338 0.12307,-4.56352 -4.16691,-0.85706 -2.11985,10.73638 4.45868,1.34942 z"
       id="path67-2"
       sodipodi:nodetypes="ccccccccccccc" /></g><g
     inkscape:groupmode="layer"
     id="layer11"
     inkscape:label="cardio"
     style="display:inline"
     transform="translate(-122.63594,-198.72283)"><path
       style="opacity:1;fill:#413835;fill-opacity:1;stroke:#413835;stroke-width:1;stroke-linecap:round;stroke-linejoin:round;stroke-dasharray:none;stroke-opacity:1"
       d="m 138.81096,215.09629 c -2.014,-3.73857 -3.54467,-11.0941 -1.41644,-12.9503 2.12823,-1.8562 6.2728,2.42818 6.2728,2.42818 -3.06658,-1.34776 -0.75756,-3.73008 -0.40469,-5.05871 0.35287,-1.32863 4.93643,2.14971 7.08219,5.26106 l 5.66575,-0.60704 c 4.72633,4.20651 4.43296,6.18205 4.45166,8.29628 l 2.42818,0.80939 c -0.036,4.71122 -0.41216,9.26784 -6.2728,11.33151 l 2.63053,8.29628 c 1.38583,-2.04787 2.04057,-6.39895 4.85637,-4.04697 2.8158,2.35198 -2.61406,8.61301 -6.2728,9.51037 -3.65874,0.89736 -1.01175,2.63053 -1.01175,2.63053 10.19098,-2.93379 8.18908,8.00278 12.1409,12.74796 l -7.28454,0.80938 -0.40469,-3.64227 -10.11742,2.83288 c -0.007,7.43331 -9.0582,7.41886 -18.009,7.48689 l -1.21409,-7.89159 c 3.99704,-0.56017 8.73828,-0.5622 10.72446,-2.63053 l -2.02348,-3.84461 c -6.39278,-1.71687 -16.22773,4.47591 -17.40196,-4.24932 -1.17423,-8.72523 9.38998,4.65248 11.93855,-0.40469 9.44835,1.00993 10.79191,-8.16139 11.12916,-12.5456 l -2.63053,-5.66576 c -3.86415,-1.62055 -6.35764,-4.06351 -4.85636,-8.90332 z"
       id="path78"
       sodipodi:nodetypes="czczcccccczzccccccccczcccc" /><path
       style="opacity:1;fill:#ffffff;fill-opacity:1;stroke:#413835;stroke-width:1;stroke-linecap:round;stroke-linejoin:round;stroke-dasharray:none;stroke-opacity:1"
       d="m 138.48415,205.05675 c 2.21847,-1.73023 4.24931,2.42817 4.24931,2.42817 l -3.64227,4.65402 c -0.94372,-2.37745 -2.82551,-5.35196 -0.60704,-7.08219 z"
       id="path79"
       sodipodi:nodetypes="zccz" /><rect
       style="fill:#e98888;fill-opacity:1;stroke:#413835;stroke-width:1.29798;stroke-linecap:round;stroke-linejoin:round;stroke-dasharray:none;stroke-opacity:1"
       id="rect69-5"
       width="10.11709"
       height="5.2607303"
       x="272.38809"
       y="-86.118744"
       ry="1.2091193"
       transform="rotate(80.019666)" /><rect
       style="fill:#ffffff;fill-opacity:1;stroke:#ffeaa0;stroke-width:1.5;stroke-linecap:round;stroke-linejoin:round;stroke-dasharray:none;stroke-opacity:0"
       id="rect76-1"
       width="8.8527327"
       height="1.2646873"
       x="273.04556"
       y="-82.678986"
       ry="0"
       transform="rotate(80.019666)" /><path
       style="opacity:1;fill:#ffeaa0;fill-opacity:1;stroke:#ffeaa0;stroke-width:1.5;stroke-linecap:round;stroke-linejoin:round;stroke-dasharray:none;stroke-opacity:1"
       d="m 152.773,210.84697 4.04696,1.01174"
       id="path80" /><rect
       style="fill:#e98888;fill-opacity:1;stroke:#413835;stroke-width:1.29798;stroke-linecap:round;stroke-linejoin:round;stroke-dasharray:none;stroke-opacity:1"
       id="rect69-6"
       width="10.11709"
       height="5.2607303"
       x="161.51186"
       y="254.17148"
       ry="1.2091193" /><rect
       style="fill:#ffffff;fill-opacity:1;stroke:#ffeaa0;stroke-width:1.5;stroke-linecap:round;stroke-linejoin:round;stroke-dasharray:none;stroke-opacity:0"
       id="rect76-5"
       width="8.8527327"
       height="1.2646873"
       x="162.16934"
       y="257.61124"
       ry="0" /><path
       style="opacity:1;fill:#413835;fill-opacity:1;stroke:#ffeaa0;stroke-width:2.5;stroke-linecap:round;stroke-linejoin:round;stroke-dasharray:none;stroke-opacity:0"
       d="m 144.67906,223.79726 c 0,0 -7.42878,1.0795 -9.71271,4.85636 -2.28394,3.77686 -3.70707,15.35353 1.01173,15.17613 4.71881,-0.1774 0.0123,-15.18048 9.71273,-13.96203 z"
       id="path81"
       sodipodi:nodetypes="czzcc" /><ellipse
       style="opacity:1;fill:#ffffff;fill-opacity:1;stroke:#413835;stroke-width:1.5;stroke-linecap:round;stroke-linejoin:round;stroke-dasharray:none;stroke-opacity:1"
       id="path82"
       cx="176.75127"
       cy="219.95264"
       rx="9.6115456"
       ry="9.5103722" /><path
       style="opacity:1;fill:#e98787;fill-opacity:1;stroke:#413835;stroke-width:1.5;stroke-linecap:round;stroke-linejoin:round;stroke-dasharray:none;stroke-opacity:1"
       d="m 178.67359,211.04932 -2.83288,9.71272 7.48689,6.07045 c 4.18429,-5.35296 3.85617,-12.74861 -4.65401,-15.78317 z"
       id="path83"
       sodipodi:nodetypes="cccc" /><path
       style="opacity:1;fill:#ffffff;fill-opacity:1;stroke:#413835;stroke-width:1.5;stroke-linecap:round;stroke-linejoin:round;stroke-dasharray:none;stroke-opacity:1"
       d="m 146.70255,230.67711 c 0.90862,-1.78452 5.42186,-2.77639 2.02348,-6.47514 2.6871,0.96574 -0.0748,-5.82187 9.30802,5.66574 0.62778,4.36968 -1.37219,8.98384 -3.43992,11.73621 l -10.52212,-2.22584 c 2.18861,-2.90032 1.99807,-5.80065 2.63054,-8.70097 z"
       id="path84"
       sodipodi:nodetypes="cccccc" /><path
       style="opacity:1;fill:#ffffff;fill-opacity:0;stroke:#ffeaa0;stroke-width:1;stroke-linecap:round;stroke-linejoin:round;stroke-dasharray:none;stroke-opacity:1"
       d="m 141.84619,240.18748 c -2.39319,7.69247 0.17254,12.02751 9.51037,12.9503"
       id="path85"
       sodipodi:nodetypes="cc" /><path
       style="opacity:1;fill:#ffffff;fill-opacity:0;stroke:#ffeaa0;stroke-width:1;stroke-linecap:round;stroke-linejoin:round;stroke-dasharray:none;stroke-opacity:1"
       d="m 142.65558,224.20196 c 4.61922,2.32594 5.29184,0.70528 7.48689,0.60705 m -7.18336,-21.46572 c 2.72509,3.12736 5.29249,0.50919 7.48689,0.60705"
       id="path86"
       sodipodi:nodetypes="cccc" /></g></svg>
