<?xml version="1.0" encoding="UTF-8" standalone="no"?>
<!-- Created with Inkscape (http://www.inkscape.org/) -->

<svg
   width="56.341339mm"
   height="50.519375mm"
   viewBox="0 0 56.341339 50.519375"
   version="1.1"
   id="svg1"
   xml:space="preserve"
   inkscape:version="1.3.2 (091e20e, 2023-11-25, custom)"
   sodipodi:docname="icon.svg"
   xmlns:inkscape="http://www.inkscape.org/namespaces/inkscape"
   xmlns:sodipodi="http://sodipodi.sourceforge.net/DTD/sodipodi-0.dtd"
   xmlns="http://www.w3.org/2000/svg"
   xmlns:svg="http://www.w3.org/2000/svg"><sodipodi:namedview
     id="namedview1"
     pagecolor="#ffffff"
     bordercolor="#000000"
     borderopacity="0.25"
     inkscape:showpageshadow="2"
     inkscape:pageopacity="0.0"
     inkscape:pagecheckerboard="0"
     inkscape:deskcolor="#d1d1d1"
     inkscape:document-units="mm"
     showgrid="true"
     inkscape:zoom="0.43543761"
     inkscape:cx="714.22402"
     inkscape:cy="500.64577"
     inkscape:window-width="2400"
     inkscape:window-height="1261"
     inkscape:window-x="2391"
     inkscape:window-y="-9"
     inkscape:window-maximized="1"
     inkscape:current-layer="layer1"><inkscape:grid
       id="grid6"
       units="mm"
       originx="-10.523611"
       originy="38.689153"
       spacingx="0.99999998"
       spacingy="1"
       empcolor="#0099e5"
       empopacity="0.30196078"
       color="#0099e5"
       opacity="0.14901961"
       empspacing="5"
       dotted="false"
       gridanglex="30"
       gridanglez="30"
       visible="true" /></sodipodi:namedview><defs
     id="defs1" /><g
     inkscape:label="level"
     inkscape:groupmode="layer"
     id="layer1"
     inkscape:export-filename="lvl 1 cat.svg"
     inkscape:export-xdpi="96"
     inkscape:export-ydpi="96"
     transform="translate(-9.2346413,-17.166212)"><path
       style="fill:#ffe1b5;fill-opacity:1;stroke:#940015;stroke-width:1;stroke-opacity:0"
       d="M 9.7821549,53.591805 C 10.517408,63.567969 21.357614,67.013318 36.422701,67.179649 51.903886,67.350574 64.122753,63.819282 64.953817,53.62231 65.78488,43.425338 62.120941,36.422703 62.120941,36.422703 c 0,0 1.487713,-16.687544 -2.023483,-18.413701 -4.806348,-2.362873 -13.759688,8.296282 -13.759688,8.296282 -7.113384,-1.81813 -15.625332,-2.438787 -20.782613,0.320881 -0.891299,0.476936 -4.690466,-8.772859 -7.546155,-8.414814 -7.465574,0.93603 -5.986634,18.305334 -5.986634,18.305334 0,0 -2.6692713,11.253515 -2.2402131,17.07512 z"
       id="path1"
       sodipodi:nodetypes="sszcsccscs" /><path
       style="fill:#ffffff;fill-opacity:1;stroke:#ffe1b5;stroke-width:1;stroke-opacity:1"
       d="m 22.385964,65.213012 c 0,0 -0.347668,-12.608548 13.360792,-12.475972 12.144171,0.117447 14.068649,12.8299 14.068649,12.8299 -8.132303,1.109477 -16.090782,2.430027 -27.429441,-0.353928 z"
       id="path6"
       sodipodi:nodetypes="cscc" /><ellipse
       style="fill:#413835;fill-opacity:1;stroke:#940015;stroke-width:0.868612;stroke-opacity:0"
       id="path2"
       cx="24.168322"
       cy="46.404816"
       rx="2.2279649"
       ry="2.183852" /><ellipse
       style="fill:#413835;fill-opacity:1;stroke:#940015;stroke-width:0.919298;stroke-opacity:0"
       id="path2-9"
       cx="47.043652"
       cy="46.6768"
       rx="2.5248647"
       ry="2.1585093" /><path
       style="fill:#ffffff;fill-opacity:1;stroke:#940015;stroke-width:1;stroke-opacity:0"
       d="m 15.294659,25.066645 c 2.230224,-0.9793 4.264601,3.037327 5.058708,5.665753 -1.304539,0.06822 -3.059551,1.419203 -6.475147,4.654012 -0.09484,-5.572738 -0.533725,-9.463441 1.416439,-10.319765 z"
       id="path3"
       sodipodi:nodetypes="sccs" /><path
       style="fill:#ffffff;fill-opacity:1;stroke:#940015;stroke-width:1;stroke-opacity:0"
       d="m 58.735394,24.814617 c -2.230224,-0.9793 -4.264601,3.037327 -5.058708,5.665753 1.304539,0.06822 3.059551,1.419203 6.475147,4.654012 0.09484,-5.572738 0.533725,-9.463441 -1.416439,-10.319765 z"
       id="path3-2"
       sodipodi:nodetypes="sccs" /><path
       style="fill:#413835;fill-opacity:1;stroke:#413835;stroke-width:1;stroke-opacity:0"
       d="m 32.856585,47.437995 c 1.016959,-0.59661 2.128781,-1.003494 3.844618,-0.202348 -0.658116,0.66518 0.320009,1.148556 -2.225831,2.023483 -0.815785,-0.330856 -1.271696,-1.021586 -1.618787,-1.821135 z"
       id="path4"
       sodipodi:nodetypes="cccc" /><path
       style="fill:#940015;fill-opacity:0;stroke:#413835;stroke-width:1;stroke-opacity:1"
       d="m 30.349351,53.885581 c 1.41304,-0.164935 2.73765,0.06806 4.601067,-2.12357 0.9799,1.315478 2.086185,2.486516 4.689549,1.946606"
       id="path5"
       sodipodi:nodetypes="ccc" /></g></svg>
