<?xml version="1.0" encoding="UTF-8" standalone="no"?>
<!-- Created with Inkscape (http://www.inkscape.org/) -->

<svg
   width="67.726341mm"
   height="55.197041mm"
   viewBox="0 0 67.726341 55.197041"
   version="1.1"
   id="svg1"
   xml:space="preserve"
   inkscape:version="1.3.2 (091e20e, 2023-11-25, custom)"
   sodipodi:docname="icon.svg"
   xmlns:inkscape="http://www.inkscape.org/namespaces/inkscape"
   xmlns:sodipodi="http://sodipodi.sourceforge.net/DTD/sodipodi-0.dtd"
   xmlns="http://www.w3.org/2000/svg"
   xmlns:svg="http://www.w3.org/2000/svg"><sodipodi:namedview
     id="namedview1"
     pagecolor="#ffffff"
     bordercolor="#000000"
     borderopacity="0.25"
     inkscape:showpageshadow="2"
     inkscape:pageopacity="0.0"
     inkscape:pagecheckerboard="0"
     inkscape:deskcolor="#d1d1d1"
     inkscape:document-units="mm"
     showgrid="true"
     inkscape:zoom="0.43543761"
     inkscape:cx="714.22402"
     inkscape:cy="500.64577"
     inkscape:window-width="2400"
     inkscape:window-height="1261"
     inkscape:window-x="2391"
     inkscape:window-y="-9"
     inkscape:window-maximized="1"
     inkscape:current-layer="layer13"><inkscape:grid
       id="grid6"
       units="mm"
       originx="-142.9699"
       originy="-20.9695"
       spacingx="0.99999998"
       spacingy="1"
       empcolor="#0099e5"
       empopacity="0.30196078"
       color="#0099e5"
       opacity="0.14901961"
       empspacing="5"
       dotted="false"
       gridanglex="30"
       gridanglez="30"
       visible="true" /></sodipodi:namedview><defs
     id="defs1" /><g
     inkscape:groupmode="layer"
     id="layer3"
     inkscape:label="level 3 cat "
     transform="translate(-142.9699,-20.969499)"><path
       style="fill:#e4b296;fill-opacity:1;stroke:#940015;stroke-width:1;stroke-opacity:0"
       d="m 143.5174,57.395094 c 0.73525,9.976163 11.57546,13.421513 26.64054,13.587843 15.48119,0.17093 27.70006,-3.36037 28.53112,-13.557338 0.83106,-10.196972 -2.83288,-17.199607 -2.83288,-17.199607 0,0 1.48772,-16.687544 -2.02348,-18.413701 -4.80635,-2.362873 -13.75969,8.296282 -13.75969,8.296282 -7.11338,-1.81813 -15.62533,-2.438787 -20.78261,0.320881 -0.8913,0.476936 -4.69047,-8.772859 -7.54616,-8.414814 -7.46557,0.93603 -5.98663,18.305334 -5.98663,18.305334 0,0 -2.66927,11.253515 -2.24021,17.07512 z"
       id="path1-1-0"
       sodipodi:nodetypes="sszcsccscs" /><path
       style="fill:#ffffff;fill-opacity:1;stroke:#940015;stroke-width:1;stroke-opacity:0"
       d="m 149.0199,29.481883 c 2.23022,-0.9793 4.2646,3.037327 5.05871,5.665753 -1.30454,0.06822 -3.05956,1.419203 -6.47515,4.654012 -0.0948,-5.572738 -0.53373,-9.463441 1.41644,-10.319765 z"
       id="path3-8-5"
       sodipodi:nodetypes="sccs" /><path
       style="fill:#413835;fill-opacity:1;stroke:#413835;stroke-width:2.3;stroke-linecap:round;stroke-dasharray:none;stroke-opacity:1"
       d="m 155.8345,47.57218 5.05871,1.821135"
       id="path16" /><path
       style="fill:#413835;fill-opacity:1;stroke:#413835;stroke-width:2.3;stroke-linecap:round;stroke-dasharray:none;stroke-opacity:1"
       d="m 185.42832,47.953284 -5.05871,1.821135"
       id="path16-8" /><path
       style="fill:#413835;fill-opacity:0;stroke:#fff0e0;stroke-width:1.85328;stroke-linecap:round;stroke-dasharray:none;stroke-opacity:1"
       d="m 172.95965,42.403991 c -1.78341,2.343034 0.85957,2.774097 1.368,3.88664"
       id="path17-0"
       sodipodi:nodetypes="cc" /><path
       style="fill:#413835;fill-opacity:0;stroke:#fff0e0;stroke-width:1.85328;stroke-linecap:round;stroke-dasharray:none;stroke-opacity:1"
       d="m 167.59665,42.030578 c 1.78341,2.343034 -0.85957,2.774097 -1.368,3.88664"
       id="path17-0-3"
       sodipodi:nodetypes="cc" /><path
       style="fill:#ffffff;fill-opacity:1;stroke:#ffffff;stroke-width:2.3;stroke-linecap:round;stroke-dasharray:none;stroke-opacity:1"
       d="m 153.17769,66.167908 c 2.06557,-8.731602 4.9703,-15.396815 16.99726,-17.604307 12.02696,-2.207492 20.23484,17.604306 20.23484,17.604306 -11.9942,0.808422 -20.19683,4.861677 -37.2321,10e-7 z"
       id="path17"
       sodipodi:nodetypes="czcc" /><path
       style="fill:#e98787;fill-opacity:1;stroke:#c69f89;stroke-width:2.3;stroke-linecap:round;stroke-dasharray:none;stroke-opacity:0"
       d="m 160.25989,29.947555 2.63052,-2.225831 c 0.36778,-4.369586 8.52771,-3.284672 13.75969,-4.249317 10.10867,0.902242 14.04912,3.860557 19.62779,6.2728 4.00953,5.389421 3.85094,8.173767 3.64227,10.92681 0.31682,4.801894 -0.74159,5.936488 -2.02348,6.475148 z"
       id="path18"
       sodipodi:nodetypes="ccccccc" /><path
       style="fill:#e98787;fill-opacity:1;stroke:#c69f89;stroke-width:2.3;stroke-linecap:round;stroke-dasharray:none;stroke-opacity:0"
       d="m 199.92016,44.921331 9.51037,3.844618 c -0.79547,5.572009 -4.35028,6.807893 -8.90332,6.475148 -1.0705,-1.990791 -2.0911,-4.181188 -2.63053,-8.296283 z"
       id="path19"
       sodipodi:nodetypes="ccccc" /><path
       style="fill:#e7b19f;fill-opacity:1;stroke:#413835;stroke-width:3;stroke-linecap:round;stroke-dasharray:none;stroke-opacity:1"
       d="m 184.94638,64.54912 3.64227,10.117418"
       id="path20" /><path
       style="fill:#e7b19f;fill-opacity:1;stroke:#413835;stroke-width:3;stroke-linecap:round;stroke-dasharray:none;stroke-opacity:1"
       d="m 195.192,60.423527 3.64227,10.117418"
       id="path20-7" /><path
       style="fill:#e7b19f;fill-opacity:1;stroke:#413835;stroke-width:2.04565;stroke-linecap:round;stroke-dasharray:none;stroke-opacity:1"
       d="m 183.59962,66.951341 2.37079,7.227153"
       id="path20-8" /><path
       style="fill:#e7b19f;fill-opacity:1;stroke:#413835;stroke-width:2.04565;stroke-linecap:round;stroke-dasharray:none;stroke-opacity:1"
       d="m 197.99864,60.755745 2.37079,7.227153"
       id="path20-8-2" /><path
       style="fill:#e7b19f;fill-opacity:1;stroke:#413835;stroke-width:3;stroke-linecap:round;stroke-dasharray:none;stroke-opacity:1"
       d="m 186.96987,69.327603 10.11741,-3.844618"
       id="path21" /><path
       style="fill:#423831;fill-opacity:1;stroke:#413835;stroke-width:3;stroke-linecap:round;stroke-dasharray:none;stroke-opacity:0.0289855"
       d="m 167.33426,51.724102 c 1.6011,-1.280665 2.85131,-0.806835 4.07784,-0.214622 -0.44323,0.672649 -0.68092,1.448062 -2.21777,1.5739 -0.77673,-0.244157 -1.63311,-0.382098 -1.86007,-1.359278 z"
       id="path22"
       sodipodi:nodetypes="cccc" /><path
       style="fill:#423831;fill-opacity:1;stroke:#423831;stroke-width:1.5;stroke-linecap:round;stroke-dasharray:none;stroke-opacity:1"
       d="m 166.04653,56.159638 c 0.0796,0.358902 3.26152,-0.526374 3.43396,-0.93003 4.42547,1.951647 5.67289,0.195583 8.01259,-0.286165"
       id="path23"
       sodipodi:nodetypes="ccc" /></g><g
     inkscape:groupmode="layer"
     id="layer9"
     inkscape:label="meat"
     style="display:inline"
     inkscape:export-filename="meat.svg"
     inkscape:export-xdpi="96"
     inkscape:export-ydpi="96"
     transform="translate(-142.9699,-20.969499)"><path
       style="opacity:1;fill:#413835;fill-opacity:1;stroke:#413835;stroke-width:1.2;stroke-linecap:round;stroke-linejoin:round;stroke-dasharray:none;stroke-opacity:1"
       d="m 155.40353,92.270843 c 0,0 0.92711,-14.502479 5.0587,-15.78317 4.13159,-1.280691 11.53386,12.1409 11.53386,12.1409 7.14797,-0.42343 9.77759,0.973592 14.97378,4.85636 0,0 12.83699,-2.142985 15.37847,0.404697 2.54149,2.547683 -5.66575,15.98552 -5.66575,15.98552 0,0 2.40094,25.46605 -29.74521,14.16438 -32.14615,-11.30167 -11.53385,-31.768687 -11.53385,-31.768687 z"
       id="path59"
       sodipodi:nodetypes="czcczczc" /></g></svg>
