<?xml version="1.0" encoding="UTF-8" standalone="no"?>
<!-- Created with Inkscape (http://www.inkscape.org/) -->

<svg
   width="56.341335mm"
   height="55.075325mm"
   viewBox="0 0 56.341335 55.075325"
   version="1.1"
   id="svg1"
   xml:space="preserve"
   inkscape:version="1.3.2 (091e20e, 2023-11-25, custom)"
   sodipodi:docname="icon.svg"
   xmlns:inkscape="http://www.inkscape.org/namespaces/inkscape"
   xmlns:sodipodi="http://sodipodi.sourceforge.net/DTD/sodipodi-0.dtd"
   xmlns="http://www.w3.org/2000/svg"
   xmlns:svg="http://www.w3.org/2000/svg"><sodipodi:namedview
     id="namedview1"
     pagecolor="#ffffff"
     bordercolor="#000000"
     borderopacity="0.25"
     inkscape:showpageshadow="2"
     inkscape:pageopacity="0.0"
     inkscape:pagecheckerboard="0"
     inkscape:deskcolor="#d1d1d1"
     inkscape:document-units="mm"
     showgrid="true"
     inkscape:zoom="0.43543761"
     inkscape:cx="714.22402"
     inkscape:cy="500.64577"
     inkscape:window-width="2400"
     inkscape:window-height="1261"
     inkscape:window-x="2391"
     inkscape:window-y="-9"
     inkscape:window-maximized="1"
     inkscape:current-layer="layer13"><inkscape:grid
       id="grid6"
       units="mm"
       originx="-78.705688"
       originy="-21.210718"
       spacingx="0.99999998"
       spacingy="1"
       empcolor="#0099e5"
       empopacity="0.30196078"
       color="#0099e5"
       opacity="0.14901961"
       empspacing="5"
       dotted="false"
       gridanglex="30"
       gridanglez="30"
       visible="true" /></sodipodi:namedview><defs
     id="defs1" /><g
     inkscape:groupmode="layer"
     id="layer2"
     inkscape:label="level 2 cat"
     transform="translate(-78.70569,-21.210718)"><path
       style="fill:#ffe1b5;fill-opacity:1;stroke:#940015;stroke-width:1;stroke-opacity:0"
       d="m 79.253207,57.636314 c 0.735253,9.976164 11.575459,13.421513 26.640543,13.587844 15.48119,0.170925 27.70006,-3.360367 28.53112,-13.557339 0.83106,-10.196972 -2.83288,-17.199607 -2.83288,-17.199607 0,0 1.48772,-16.687544 -2.02348,-18.413701 -4.80635,-2.362873 -13.75969,8.296282 -13.75969,8.296282 -7.11338,-1.81813 -15.62533,-2.438787 -20.782611,0.320881 -0.891299,0.476936 -4.690466,-8.772859 -7.546155,-8.414814 -7.465574,0.93603 -5.986634,18.305334 -5.986634,18.305334 0,0 -2.669271,11.253515 -2.240213,17.07512 z"
       id="path1-1"
       sodipodi:nodetypes="sszcsccscs" /><path
       style="fill:#ffffff;fill-opacity:1;stroke:#940015;stroke-width:1;stroke-opacity:0"
       d="m 84.755708,29.723103 c 2.230224,-0.9793 4.264601,3.037327 5.058708,5.665753 -1.304539,0.06822 -3.059551,1.419203 -6.475147,4.654012 -0.09484,-5.572738 -0.533725,-9.463441 1.416439,-10.319765 z"
       id="path3-8"
       sodipodi:nodetypes="sccs" /><path
       style="fill:#ffffff;fill-opacity:1;stroke:#ffe1b5;stroke-width:1.009;stroke-linecap:round;stroke-dasharray:none;stroke-opacity:1"
       d="m 80.268937,54.228034 c 13.507442,0.777432 17.013076,-4.311717 24.610083,-7.011011 12.62699,6.469056 20.44042,6.326784 29.18871,7.154093 0,0 2.54816,16.149861 -27.61481,17.026744 C 76.289948,72.274743 80.268937,56.337862 80.268937,54.228034 Z"
       id="path14"
       sodipodi:nodetypes="ccczc" /><path
       style="fill:#c69f89;fill-opacity:1;stroke:#c69f89;stroke-width:1.009;stroke-linecap:round;stroke-dasharray:none;stroke-opacity:1"
       d="m 104.3067,29.188705 c -6.56039,26.325262 17.17802,25.505886 29.9041,26.327066 0.32859,-4.52637 -0.43199,-8.947204 -2.71855,-14.594353 0,0 0.60804,-17.242022 -1.86006,-18.600644 -2.4681,-1.358622 -5.6897,1.130865 -13.59278,8.298748 -3.06026,-0.676469 -5.00842,-1.120751 -11.73271,-1.430817 z"
       id="path15"
       sodipodi:nodetypes="ccczcc" /><path
       style="fill:#ffffff;fill-opacity:1;stroke:#940015;stroke-width:1;stroke-opacity:0"
       d="m 127.86237,28.946786 c -2.23023,-0.9793 -4.2646,3.037327 -5.05871,5.665753 1.30454,0.06822 3.05955,1.419203 6.47515,4.654012 0.0948,-5.572738 0.53372,-9.463441 -1.41644,-10.319765 z"
       id="path3-1"
       sodipodi:nodetypes="sccs" /><path
       style="fill:#e98787;fill-opacity:1;stroke:#413835;stroke-width:1.609;stroke-linecap:round;stroke-dasharray:none;stroke-opacity:0"
       d="m 102.87588,58.663572 c 0,0 0.48516,3.899603 2.43239,3.86321 1.62411,-0.03035 3.1478,-3.720129 3.1478,-3.720129 -1.78505,-0.947801 -3.43951,-3.462744 -5.58019,-0.143081 z"
       id="path10"
       sodipodi:nodetypes="cscc" /><path
       style="display:inline;fill:#413835;fill-opacity:0;stroke:#413835;stroke-width:1.609;stroke-linecap:round;stroke-dasharray:none;stroke-opacity:1"
       d="m 90.904493,48.889698 c 3.165788,-1.496769 4.535076,0.477596 6.057529,2.156022"
       id="path9"
       sodipodi:nodetypes="cc" /><path
       style="fill:#413835;fill-opacity:1;stroke:#413835;stroke-width:1;stroke-opacity:0"
       d="m 102.92942,52.627316 c 1.01696,-0.59661 2.12878,-1.003494 3.84461,-0.202348 -0.65811,0.66518 0.32001,1.148556 -2.22583,2.023483 -0.81578,-0.330856 -1.27169,-1.021586 -1.61878,-1.821135 z"
       id="path4-6"
       sodipodi:nodetypes="cccc" /><path
       style="display:inline;fill:#413835;fill-opacity:0;stroke:#413835;stroke-width:1.609;stroke-linecap:round;stroke-dasharray:none;stroke-opacity:1"
       d="m 120.17401,48.999262 c -3.16579,-1.496769 -4.53508,0.477596 -6.05753,2.156022"
       id="path9-3"
       sodipodi:nodetypes="cc" /><path
       style="fill:#940015;fill-opacity:0;stroke:#413835;stroke-width:1;stroke-opacity:1"
       d="m 100.64396,58.612228 c 1.41303,-0.164935 2.73764,0.06806 4.60106,-2.12357 0.9799,1.315478 2.08618,2.486516 4.68955,1.946606"
       id="path5-1"
       sodipodi:nodetypes="ccc" /><path
       style="fill:#e98787;fill-opacity:1;stroke:#413835;stroke-width:1.78895;stroke-linecap:round;stroke-dasharray:none;stroke-opacity:0"
       d="m 94.283886,69.077707 c -2.625055,-0.280674 -1.71771,3.002199 -0.421423,3.412263 2.904088,0.918671 21.954007,1.696875 24.409747,0.563594 2.49084,-1.149478 -0.0755,-3.489005 -1.01283,-3.446808 -5.54459,0.249618 -16.0079,0.215934 -22.975494,-0.529049 z"
       id="path11"
       sodipodi:nodetypes="sssss" /><path
       style="fill:#413835;fill-opacity:1;stroke:#413835;stroke-width:1.609;stroke-linecap:round;stroke-dasharray:none;stroke-opacity:0"
       d="m 122.47809,58.949737 -7.01101,11.017304 c 0.41005,2.459261 1.83172,2.500687 4.14937,2.289309 l 6.29561,-10.301895 c -0.704,-1.338283 0.18112,-2.394208 -3.43397,-3.004718 z"
       id="path12"
       sodipodi:nodetypes="ccccc" /><path
       style="fill:#413835;fill-opacity:1;stroke:#413835;stroke-width:1.609;stroke-linecap:round;stroke-dasharray:none;stroke-opacity:0"
       d="m 128.05355,62.08631 -7.01101,11.017304 c 0.41005,2.459261 1.83172,2.500687 4.14937,2.289309 l 6.29561,-10.301895 c -0.704,-1.338283 0.18112,-2.394208 -3.43397,-3.004718 z"
       id="path12-7"
       sodipodi:nodetypes="ccccc" /><path
       style="fill:#e98787;fill-opacity:0;stroke:#413835;stroke-width:1.009;stroke-linecap:round;stroke-dasharray:none;stroke-opacity:1"
       d="m 124.19508,59.522063 c 1.50386,-2.664843 4.38787,-3.862499 5.86635,-2.575473 1.47848,1.287026 0.78335,2.54733 0.14308,3.433965 -0.64027,0.886635 -1.91663,2.062415 -3.00471,0.85849 -1.08808,-1.203925 -4.10207,-4.353908 0.28616,-3.577046 4.38823,0.776862 3.00653,3.531829 3.00472,5.866358"
       id="path13"
       sodipodi:nodetypes="czzzzc" /></g></svg>
