<?xml version="1.0" encoding="UTF-8" standalone="no"?>
<!-- Created with Inkscape (http://www.inkscape.org/) -->

<svg
   width="56.481449mm"
   height="50.519375mm"
   viewBox="0 0 56.481449 50.519375"
   version="1.1"
   id="svg1"
   xml:space="preserve"
   inkscape:version="1.3.2 (091e20e, 2023-11-25, custom)"
   sodipodi:docname="icon.svg"
   xmlns:inkscape="http://www.inkscape.org/namespaces/inkscape"
   xmlns:sodipodi="http://sodipodi.sourceforge.net/DTD/sodipodi-0.dtd"
   xmlns="http://www.w3.org/2000/svg"
   xmlns:svg="http://www.w3.org/2000/svg"><sodipodi:namedview
     id="namedview1"
     pagecolor="#ffffff"
     bordercolor="#000000"
     borderopacity="0.25"
     inkscape:showpageshadow="2"
     inkscape:pageopacity="0.0"
     inkscape:pagecheckerboard="0"
     inkscape:deskcolor="#d1d1d1"
     inkscape:document-units="mm"
     showgrid="true"
     inkscape:zoom="0.43543761"
     inkscape:cx="714.22402"
     inkscape:cy="500.64577"
     inkscape:window-width="2400"
     inkscape:window-height="1261"
     inkscape:window-x="2391"
     inkscape:window-y="-9"
     inkscape:window-maximized="1"
     inkscape:current-layer="layer13"><inkscape:grid
       id="grid6"
       units="mm"
       originx="-9.2346424"
       originy="-17.166209"
       spacingx="0.99999998"
       spacingy="1"
       empcolor="#0099e5"
       empopacity="0.30196078"
       color="#0099e5"
       opacity="0.14901961"
       empspacing="5"
       dotted="false"
       gridanglex="30"
       gridanglez="30"
       visible="true" /></sodipodi:namedview><defs
     id="defs1" /><g
     inkscape:label="level 1 cat"
     inkscape:groupmode="layer"
     id="layer1"
     transform="translate(-9.2346422,-17.16621)"><path
       style="fill:#ffe1b5;fill-opacity:1;stroke:#940015;stroke-width:1;stroke-opacity:0"
       d="M 9.7821549,53.591805 C 10.517408,63.567969 21.357614,67.013318 36.422701,67.179649 51.903886,67.350574 64.122753,63.819282 64.953817,53.62231 65.78488,43.425338 62.120941,36.422703 62.120941,36.422703 c 0,0 1.487713,-16.687544 -2.023483,-18.413701 -4.806348,-2.362873 -13.759688,8.296282 -13.759688,8.296282 -7.113384,-1.81813 -15.625332,-2.438787 -20.782613,0.320881 -0.891299,0.476936 -4.690466,-8.772859 -7.546155,-8.414814 -7.465574,0.93603 -5.986634,18.305334 -5.986634,18.305334 0,0 -2.6692713,11.253515 -2.2402131,17.07512 z"
       id="path1"
       sodipodi:nodetypes="sszcsccscs" /><path
       style="fill:#ffffff;fill-opacity:1;stroke:#ffe1b5;stroke-width:1;stroke-opacity:1"
       d="m 22.385964,65.213012 c 0,0 -0.347668,-12.608548 13.360792,-12.475972 12.144171,0.117447 14.068649,12.8299 14.068649,12.8299 -8.132303,1.109477 -16.090782,2.430027 -27.429441,-0.353928 z"
       id="path6"
       sodipodi:nodetypes="cscc" /><ellipse
       style="fill:#413835;fill-opacity:1;stroke:#940015;stroke-width:1;stroke-opacity:0"
       id="path2"
       cx="24.686499"
       cy="44.820156"
       rx="1.8211352"
       ry="3.541096" /><ellipse
       style="fill:#413835;fill-opacity:1;stroke:#940015;stroke-width:1;stroke-opacity:0"
       id="path2-9"
       cx="47.707031"
       cy="45.25386"
       rx="1.8211352"
       ry="3.541096" /><path
       style="fill:#ffffff;fill-opacity:1;stroke:#940015;stroke-width:1;stroke-opacity:0"
       d="m 15.294659,25.066645 c 2.230224,-0.9793 4.264601,3.037327 5.058708,5.665753 -1.304539,0.06822 -3.059551,1.419203 -6.475147,4.654012 -0.09484,-5.572738 -0.533725,-9.463441 1.416439,-10.319765 z"
       id="path3"
       sodipodi:nodetypes="sccs" /><path
       style="fill:#ffffff;fill-opacity:1;stroke:#940015;stroke-width:1;stroke-opacity:0"
       d="m 58.735394,24.814617 c -2.230224,-0.9793 -4.264601,3.037327 -5.058708,5.665753 1.304539,0.06822 3.059551,1.419203 6.475147,4.654012 0.09484,-5.572738 0.533725,-9.463441 -1.416439,-10.319765 z"
       id="path3-2"
       sodipodi:nodetypes="sccs" /><path
       style="fill:#413835;fill-opacity:1;stroke:#413835;stroke-width:1;stroke-opacity:0"
       d="m 32.856585,47.437995 c 1.016959,-0.59661 2.128781,-1.003494 3.844618,-0.202348 -0.658116,0.66518 0.320009,1.148556 -2.225831,2.023483 -0.815785,-0.330856 -1.271696,-1.021586 -1.618787,-1.821135 z"
       id="path4"
       sodipodi:nodetypes="cccc" /><path
       style="fill:#940015;fill-opacity:0;stroke:#413835;stroke-width:1;stroke-opacity:1"
       d="m 30.349351,53.885581 c 1.41304,-0.164935 2.73765,0.06806 4.601067,-2.12357 0.9799,1.315478 2.086185,2.486516 4.689549,1.946606"
       id="path5"
       sodipodi:nodetypes="ccc" /><path
       style="fill:#e98787;fill-opacity:1;stroke:#e98787;stroke-width:1;stroke-opacity:1"
       d="m 29.61795,25.325493 35.341224,21.462282 c 0.569074,-2.494158 -0.745562,-7.081359 -2.432391,-9.443404 L 40.778337,24.753166 C 36.125231,24.220364 32.949353,24.406013 29.61795,25.325493 Z"
       id="path7"
       sodipodi:nodetypes="ccccc" /><path
       style="fill:#ffffff;fill-opacity:0;stroke:#ffffff;stroke-width:1.8;stroke-linecap:round;stroke-dasharray:none;stroke-opacity:1"
       d="M 33.338079,24.180839 64.816092,42.781484"
       id="path8"
       sodipodi:nodetypes="cc" /></g></svg>
