<?xml version="1.0" encoding="UTF-8" standalone="no"?>
<!-- Created with Inkscape (http://www.inkscape.org/) -->

<svg
   width="55.137543mm"
   height="59.080296mm"
   viewBox="0 0 55.137543 59.080296"
   version="1.1"
   id="svg1"
   xml:space="preserve"
   inkscape:version="1.3.2 (091e20e, 2023-11-25, custom)"
   sodipodi:docname="icon.svg"
   xmlns:inkscape="http://www.inkscape.org/namespaces/inkscape"
   xmlns:sodipodi="http://sodipodi.sourceforge.net/DTD/sodipodi-0.dtd"
   xmlns="http://www.w3.org/2000/svg"
   xmlns:svg="http://www.w3.org/2000/svg"><sodipodi:namedview
     id="namedview1"
     pagecolor="#ffffff"
     bordercolor="#000000"
     borderopacity="0.25"
     inkscape:showpageshadow="2"
     inkscape:pageopacity="0.0"
     inkscape:pagecheckerboard="0"
     inkscape:deskcolor="#d1d1d1"
     inkscape:document-units="mm"
     showgrid="true"
     inkscape:zoom="0.43543761"
     inkscape:cx="714.22402"
     inkscape:cy="500.64577"
     inkscape:window-width="2400"
     inkscape:window-height="1261"
     inkscape:window-x="2391"
     inkscape:window-y="-9"
     inkscape:window-maximized="1"
     inkscape:current-layer="layer13"><inkscape:grid
       id="grid6"
       units="mm"
       originx="-148.29915"
       originy="-75.796384"
       spacingx="0.99999998"
       spacingy="1"
       empcolor="#0099e5"
       empopacity="0.30196078"
       color="#0099e5"
       opacity="0.14901961"
       empspacing="5"
       dotted="false"
       gridanglex="30"
       gridanglez="30"
       visible="true" /></sodipodi:namedview><defs
     id="defs1" /><g
     inkscape:groupmode="layer"
     id="layer3"
     inkscape:label="level 3 cat "
     transform="translate(-148.29915,-75.796385)"><path
       style="fill:#e7b19f;fill-opacity:1;stroke:#413835;stroke-width:3;stroke-linecap:round;stroke-dasharray:none;stroke-opacity:1"
       d="m 184.94638,64.54912 3.64227,10.117418"
       id="path20" /></g><g
     inkscape:groupmode="layer"
     id="layer9"
     inkscape:label="meat"
     style="display:inline"
     transform="translate(-148.29915,-75.796385)"><path
       style="opacity:1;fill:#413835;fill-opacity:1;stroke:#413835;stroke-width:1.2;stroke-linecap:round;stroke-linejoin:round;stroke-dasharray:none;stroke-opacity:1"
       d="m 155.40353,92.270843 c 0,0 0.92711,-14.502479 5.0587,-15.78317 4.13159,-1.280691 11.53386,12.1409 11.53386,12.1409 7.14797,-0.42343 9.77759,0.973592 14.97378,4.85636 0,0 12.83699,-2.142985 15.37847,0.404697 2.54149,2.547683 -5.66575,15.98552 -5.66575,15.98552 0,0 2.40094,25.46605 -29.74521,14.16438 -32.14615,-11.30167 -11.53385,-31.768687 -11.53385,-31.768687 z"
       id="path59"
       sodipodi:nodetypes="czcczczc" /><path
       style="opacity:1;fill:#ffffff;fill-opacity:1;stroke:#413835;stroke-width:1.05598;stroke-linecap:round;stroke-linejoin:round;stroke-dasharray:none;stroke-opacity:1"
       d="m 161.15724,84.305648 c 1.99714,-0.410136 4.031,5.096981 4.031,5.096981 l -6.21445,1.321441 c 0,0 0.18632,-6.008285 2.18345,-6.418422 z"
       id="path60"
       sodipodi:nodetypes="zccz" /><path
       style="fill:#ffffff;fill-opacity:1;stroke:#413835;stroke-width:1.05598;stroke-linecap:round;stroke-linejoin:round;stroke-dasharray:none;stroke-opacity:1"
       d="m 198.30206,100.14708 c -1.06656,-1.737583 -6.47545,0.54472 -6.47545,0.54472 l 3.28581,5.43774 c 0,0 4.2562,-4.24488 3.18964,-5.98246 z"
       id="path60-9"
       sodipodi:nodetypes="zccz" /><path
       style="opacity:1;fill:#ffeeb4;fill-opacity:1;stroke:#ffeeb4;stroke-width:2.18206;stroke-linecap:round;stroke-linejoin:round;stroke-dasharray:none;stroke-opacity:1"
       d="m 161.43948,100.36156 c 2.6658,1.18986 3.65293,2.93327 4.97195,4.56725"
       id="path61"
       sodipodi:nodetypes="cc" /><path
       style="fill:#ffffff;fill-opacity:1;stroke:#ffeeb4;stroke-width:2.18206;stroke-linecap:round;stroke-linejoin:round;stroke-dasharray:none;stroke-opacity:1"
       d="m 187.18124,110.25351 c -2.74529,-0.99279 -4.6658,-0.42223 -6.74939,-0.16075"
       id="path61-9"
       sodipodi:nodetypes="cc" /><path
       style="opacity:1;fill:#ffffff;fill-opacity:1;stroke:#413835;stroke-width:1.5;stroke-linecap:round;stroke-linejoin:round;stroke-dasharray:none;stroke-opacity:1"
       d="m 163.09276,110.48219 c 1.2298,1.51484 3.29192,1.98929 6.6775,0.8094 2.03529,1.62718 4.30516,2.08149 6.87984,1.01174 4.46095,3.95625 6.39791,6.90291 5.46341,8.70098 0.62095,0.62095 -5.27135,10.94618 -8.09393,12.1409 -2.82259,1.19473 -11.93174,1.16942 -15.37847,0.60704 -3.44674,-0.56237 -7.05343,-15.58296 -3.43993,-17.80665 l 7.89159,-4.85636 c 4.06519,0.48308 7.579,3.12242 13.55733,1.21409"
       id="path62"
       sodipodi:nodetypes="cccczzscc" /><path
       style="opacity:1;fill:#e54949;fill-opacity:1;stroke:#342c2a;stroke-width:1.5;stroke-linecap:round;stroke-linejoin:round;stroke-dasharray:none;stroke-opacity:0.00483093"
       d="m 168.75852,112.91038 c -0.76494,1.94454 -1.25096,4.02853 -3.03523,5.4634 1.07113,1.59167 2.23912,2.69898 3.84462,1.61879 l 0.60704,-3.64227 c 2.01579,3.94421 1.66472,3.94364 2.22584,5.46341 -1.56438,3.3464 -3.02462,4.67523 -5.66576,5.86809 -5.19313,-4.58688 1.05106,-11.40268 -3.43992,-13.75968 -2.89789,0.13733 -4.66708,1.20101 -6.07045,2.83287 -1.94318,2.25956 -3.93195,5.73092 1.82114,10.92681 3.2175,6.066 7.46266,5.45227 11.7362,4.65402 0.79585,-1.44344 0.3433,-2.08892 -0.40469,-4.04697 l 3.23757,3.03522 3.64227,-3.64227 c 2.35957,-1.23369 5.16959,-6.79034 0.20234,-10.11741 1.80328,-1.97066 -2.55377,-3.17129 -4.65401,-4.65401 z"
       id="path63"
       sodipodi:nodetypes="cccccccscccccccc" /><path
       style="opacity:1;fill:#f36e6e;fill-opacity:1;stroke:#342c2a;stroke-width:1.5;stroke-linecap:round;stroke-linejoin:round;stroke-dasharray:none;stroke-opacity:0.00483093"
       d="m 156.81996,126.87241 c 1.39431,0.31617 3.58536,3.81932 5.46341,6.07045 0,0 -2.75471,-0.31814 -3.84462,-1.41644 -1.08992,-1.0983 -1.61879,-4.65401 -1.61879,-4.65401 z"
       id="path64"
       sodipodi:nodetypes="cczc" /></g></svg>
