<?xml version="1.0" encoding="UTF-8" standalone="no"?>
<!-- Created with Inkscape (http://www.inkscape.org/) -->

<svg
   width="52.582512mm"
   height="53.747963mm"
   viewBox="0 0 52.582512 53.747963"
   version="1.1"
   id="svg1"
   xml:space="preserve"
   inkscape:version="1.3.2 (091e20e, 2023-11-25, custom)"
   sodipodi:docname="icon.svg"
   xmlns:inkscape="http://www.inkscape.org/namespaces/inkscape"
   xmlns:sodipodi="http://sodipodi.sourceforge.net/DTD/sodipodi-0.dtd"
   xmlns="http://www.w3.org/2000/svg"
   xmlns:svg="http://www.w3.org/2000/svg"><sodipodi:namedview
     id="namedview1"
     pagecolor="#ffffff"
     bordercolor="#000000"
     borderopacity="0.25"
     inkscape:showpageshadow="2"
     inkscape:pageopacity="0.0"
     inkscape:pagecheckerboard="0"
     inkscape:deskcolor="#d1d1d1"
     inkscape:document-units="mm"
     showgrid="true"
     inkscape:zoom="0.43543761"
     inkscape:cx="714.22402"
     inkscape:cy="500.64577"
     inkscape:window-width="2400"
     inkscape:window-height="1261"
     inkscape:window-x="2391"
     inkscape:window-y="-9"
     inkscape:window-maximized="1"
     inkscape:current-layer="layer13"><inkscape:grid
       id="grid6"
       units="mm"
       originx="-150.42436"
       originy="-138.84602"
       spacingx="0.99999998"
       spacingy="1"
       empcolor="#0099e5"
       empopacity="0.30196078"
       color="#0099e5"
       opacity="0.14901961"
       empspacing="5"
       dotted="false"
       gridanglex="30"
       gridanglez="30"
       visible="true" /></sodipodi:namedview><defs
     id="defs1" /><g
     inkscape:groupmode="layer"
     id="layer8"
     inkscape:label="vegan"
     transform="translate(-160.94646,-141.07185)"
     style="display:inline"><path
       style="opacity:1;fill:#99ac7f;fill-opacity:1;stroke:#413835;stroke-width:1.2;stroke-linecap:round;stroke-linejoin:round;stroke-dasharray:none;stroke-opacity:1"
       d="m 166.73503,152.57065 c 1.69509,-3.76014 3.1805,-7.60415 7.48689,-10.31977 3.64315,0.62806 4.8893,5.25113 7.08219,8.29629 7.01343,0.20103 13.50657,-0.11822 21.04423,0.60704 4.53589,3.09848 2.33071,7.88223 3.03523,11.93855 2.43124,1.28062 4.11225,2.78631 1.21408,5.66576 l -34.60156,1.82113 z"
       id="path52"
       sodipodi:nodetypes="cccccccc" /><path
       style="opacity:1;fill:#413835;fill-opacity:1;stroke:#413835;stroke-width:1.2;stroke-linecap:round;stroke-linejoin:round;stroke-dasharray:none;stroke-opacity:1"
       d="m 188.99335,150.34482 c 11.68878,5.5638 11.5618,7.4055 16.79491,17.19961 9.75376,1.20041 7.28475,4.24924 4.24932,9.71271 l -41.68376,7.68924 c 2.4234,-12.1023 -1.54403,-32.72572 8.09393,-35.20861 6.42178,-15.10372 9.22547,-5.48384 12.5456,0.60705 z"
       id="path53"
       sodipodi:nodetypes="cccccc" /><path
       style="opacity:1;fill:#a6db84;fill-opacity:1;stroke:#413835;stroke-width:1.2;stroke-linecap:round;stroke-linejoin:round;stroke-dasharray:none;stroke-opacity:1"
       d="m 162.08102,189.6004 c 3.55856,-4.44526 2.14341,-9.06998 0.60704,-13.35499 -1.53636,-4.28501 -1.61869,-10.89179 0.43126,-16.30832 1.31068,-3.46317 -0.12551,-6.91902 1.38988,-9.38992 1.17218,-1.23831 3.07746,0.70013 5.8681,6.47514 8.15982,12.84835 1.24048,15.26031 6.87985,23.87711 4.233,-3.33984 7.43565,-4.619 9.51037,-3.64227 2.73241,3.87718 7.19924,2.0539 11.85699,1.31027 4.74157,-0.75701 9.68834,-0.46866 14.0436,-0.29853 0.39659,1.82384 0.70425,1.24914 -1.82114,4.04696 l -5.26106,2.42818 c -4.53744,7.15698 -13.8648,8.21769 -24.2818,7.89159 -4.79828,2.55268 -10.63371,2.12218 -13.99013,-1.96274 -1.60942,-1.95873 -3.62354,-0.0442 -5.23296,-1.07248 z"
       id="path51"
       sodipodi:nodetypes="czsccccsccccsc" /><path
       style="opacity:1;fill:#ffffff;fill-opacity:1;stroke:#ffffff;stroke-width:1.2;stroke-linecap:round;stroke-linejoin:round;stroke-dasharray:none;stroke-opacity:0"
       d="m 181.10176,146.0955 c 1.07919,0.61057 2.15839,2.0893 3.23758,4.85636 l -5.26106,-0.20235 z"
       id="path54"
       sodipodi:nodetypes="cccc" /><path
       style="fill:#ffffff;fill-opacity:1;stroke:#000000;stroke-width:1.2;stroke-linecap:round;stroke-linejoin:round;stroke-dasharray:none;stroke-opacity:0"
       d="m 209.69588,172.36438 c -0.28721,1.20621 -1.40852,2.65328 -3.76757,4.45775 l -1.26511,-5.1107 z"
       id="path54-9"
       sodipodi:nodetypes="cccc" /><path
       style="opacity:1;fill:#f2df9a;fill-opacity:0.00966187;stroke:#ffeaa0;stroke-width:1.2;stroke-linecap:round;stroke-linejoin:round;stroke-dasharray:none;stroke-opacity:1"
       d="m 184.74403,156.21292 c 2.18773,2.8908 0.74784,4.87469 1.01175,7.28454 -1.56746,-2.94359 -3.38645,-5.50989 -7.08219,-5.26106"
       id="path55"
       sodipodi:nodetypes="ccc" /><path
       style="fill:#ffeaa0;fill-opacity:0;stroke:#ffeaa0;stroke-width:1.2;stroke-linecap:round;stroke-linejoin:round;stroke-dasharray:none;stroke-opacity:1"
       d="m 198.76691,173.76082 c -1.66946,-3.21804 -4.07968,-2.77092 -6.142,-4.04525 1.98378,2.68072 3.51879,5.42633 1.70526,8.65611"
       id="path55-9"
       sodipodi:nodetypes="ccc" /><path
       style="opacity:1;fill:#ffeaa0;fill-opacity:1;stroke:#ffeaa0;stroke-width:1.2;stroke-linecap:round;stroke-linejoin:round;stroke-dasharray:none;stroke-opacity:1"
       d="m 181.10087,166.22598 c 1.14509,1.86472 1.57886,2.58463 5.11301,1.20823 -0.0677,2.56739 1.00596,3.56898 2.86701,4.94029 0,0 -3.74369,3.19328 -7.25404,0.474 -3.51035,-2.71928 -0.72598,-6.62252 -0.72598,-6.62252 z"
       id="path56"
       sodipodi:nodetypes="ccczc" /><path
       style="opacity:1;fill:#413835;fill-opacity:1;stroke:#000000;stroke-width:1.10342;stroke-linecap:round;stroke-linejoin:round;stroke-dasharray:none;stroke-opacity:0"
       d="m 180.64875,170.11389 c 0,0 1.87786,-0.71912 3.54317,0.72886 1.66531,1.44799 1.64689,3.11672 1.64689,3.11672 -2.54161,-0.89915 -4.97487,-0.74298 -5.19006,-3.84558 z"
       id="path57"
       sodipodi:nodetypes="czcc" /><path
       style="opacity:1;fill:#a6db84;fill-opacity:1;stroke:#413835;stroke-width:1.2;stroke-linecap:round;stroke-linejoin:round;stroke-dasharray:none;stroke-opacity:1"
       d="m 177.25715,181.10176 c 4.64936,4.08834 -2.10405,5.17595 -7.28454,6.67749"
       id="path58"
       sodipodi:nodetypes="cc" /></g></svg>
