<?xml version="1.0" encoding="UTF-8" standalone="no"?>
<!-- Created with Inkscape (http://www.inkscape.org/) -->

<svg
   width="66.464066mm"
   height="58.861267mm"
   viewBox="0 0 66.464066 58.861267"
   version="1.1"
   id="svg1"
   xml:space="preserve"
   inkscape:version="1.3.2 (091e20e, 2023-11-25, custom)"
   sodipodi:docname="icon.svg"
   xmlns:inkscape="http://www.inkscape.org/namespaces/inkscape"
   xmlns:sodipodi="http://sodipodi.sourceforge.net/DTD/sodipodi-0.dtd"
   xmlns="http://www.w3.org/2000/svg"
   xmlns:svg="http://www.w3.org/2000/svg"><sodipodi:namedview
     id="namedview1"
     pagecolor="#ffffff"
     bordercolor="#000000"
     borderopacity="0.25"
     inkscape:showpageshadow="2"
     inkscape:pageopacity="0.0"
     inkscape:pagecheckerboard="0"
     inkscape:deskcolor="#d1d1d1"
     inkscape:document-units="mm"
     showgrid="true"
     inkscape:zoom="0.43543761"
     inkscape:cx="714.22402"
     inkscape:cy="500.64577"
     inkscape:window-width="2400"
     inkscape:window-height="1261"
     inkscape:window-x="2391"
     inkscape:window-y="-9"
     inkscape:window-maximized="1"
     inkscape:current-layer="layer13"><inkscape:grid
       id="grid6"
       units="mm"
       originx="-191.19534"
       originy="-203.45392"
       spacingx="0.99999998"
       spacingy="1"
       empcolor="#0099e5"
       empopacity="0.30196078"
       color="#0099e5"
       opacity="0.14901961"
       empspacing="5"
       dotted="false"
       gridanglex="30"
       gridanglez="30"
       visible="true" /></sodipodi:namedview><defs
     id="defs1" /><g
     inkscape:groupmode="layer"
     id="layer12"
     inkscape:label="weight free"
     style="display:inline"
     transform="translate(-191.19535,-203.45393)"><path
       style="opacity:1;fill:#413835;fill-opacity:1;stroke:#ffeaa0;stroke-width:1.5;stroke-linecap:round;stroke-linejoin:round;stroke-dasharray:none;stroke-opacity:0"
       d="m 203.03319,207.32565 c 3.53568,-1.67854 6.99676,-1.97025 10.73114,-0.42925 0,0 0.57382,-3.37732 3.00472,-2.57547 2.4309,0.80185 2.86164,8.87108 2.86164,8.87108 l 1.14466,5.72327 c 6.31207,3.92077 9.25461,8.26273 -2.57548,14.45127 l 3.57705,5.72328 c 2.85549,-7.02117 7.30163,-14.0953 10.67725,-15.2438 2.32717,-0.79178 8.20351,0.36069 17.08064,6.80197 l -0.85849,5.86635 -4.72171,-2.28931 4.57862,4.14938 -6.58177,7.72642 -4.29245,-2.14623 c -3.39559,6.97592 -7.63749,12.65551 -12.38392,13.45223 -3.84038,0.64462 -5.84778,4.3877 -8.7922,4.14684 -7.40186,-0.60548 -15.96307,-10.30842 -17.02674,-22.03461 0.45331,1.30924 5.1993,-9.15961 3.94749,-10.40869 -0.74205,-0.74044 -2.673,-2.04742 -3.87774,-3.93573 -1.58114,-2.47829 -2.63501,-5.44102 -5.36378,-4.25622 l 1.28773,-2.14623 c 0,0 -2.46137,-12.88566 -0.57232,-14.16511 1.88905,-1.27945 8.15566,2.71856 8.15566,2.71856 z"
       id="path87"
       sodipodi:nodetypes="cczccccsccccccsscsscczc" /><path
       style="opacity:1;fill:#ffffff;fill-opacity:1;stroke:#ffeaa0;stroke-width:1.5;stroke-linecap:round;stroke-linejoin:round;stroke-dasharray:none;stroke-opacity:0"
       d="m 196.73759,210.18729 c 1.37838,-0.96129 3.1478,1.43082 3.1478,1.43082 l -2.71855,3.57704 c 0,0 -1.80763,-4.04657 -0.42925,-5.00786 z"
       id="path88"
       sodipodi:nodetypes="zccz" /><path
       style="opacity:1;fill:#ffffff;fill-opacity:0;stroke:#ffeaa0;stroke-width:1.5;stroke-linecap:round;stroke-linejoin:round;stroke-dasharray:none;stroke-opacity:1"
       d="m 204.75018,217.34138 c 1.28241,0.2455 2.09792,-0.28717 4.43553,1.71699 m 7.15411,-0.28618 c 0.567,-0.46991 1.38251,-1.43182 3.00471,-0.85848"
       id="path89"
       sodipodi:nodetypes="cccc" /><path
       style="opacity:1;fill:#ffeaa0;fill-opacity:1;stroke:#ffeaa0;stroke-width:1.5;stroke-linecap:round;stroke-linejoin:round;stroke-dasharray:none;stroke-opacity:0"
       d="m 214.19358,222.92158 c -1.9057,-0.31843 -3.97127,-1.83584 -5.15095,3.29088 l 3.43397,-0.14309 z"
       id="path90"
       sodipodi:nodetypes="cccc" /><path
       style="opacity:1;fill:#ffeaa0;fill-opacity:0;stroke:#ffeaa0;stroke-opacity:1"
       d="m 195.8791,219.20145 c 3.8527,-1.25394 4.21036,1.84143 3.29088,5.15094 1.85793,2.77373 3.96074,5.33423 6.58177,5.43712"
       id="path91"
       sodipodi:nodetypes="ccc" /><path
       style="opacity:1;fill:#ffeaa0;fill-opacity:0;stroke:#ffeaa0;stroke-width:1;stroke-dasharray:none;stroke-opacity:1"
       d="m 220.63226,219.91685 c 1.64976,4.45007 -2.73006,7.08058 -6.15252,9.01416"
       id="path92"
       sodipodi:nodetypes="cc" /><path
       style="opacity:1;fill:#ffffff;fill-opacity:1;stroke:#413835;stroke-width:1;stroke-dasharray:none;stroke-opacity:1"
       d="m 204.60709,230.21875 c 0.55542,7.85013 -0.33695,12.47058 -4.7217,9.30032 -0.043,7.37255 4.22426,11.92518 7.15409,16.02517 8.1298,-9.2875 11.89547,-12.96397 14.73744,-15.45284 -2.89642,-4.83293 -3.74798,-6.73783 -8.01259,-11.58963 l -2.00314,0.71541 c 0,0 3.89052,6.9163 -0.14308,7.01101 -4.0336,0.0947 -5.01309,-8.75339 -7.01102,-6.00944 z"
       id="path93"
       sodipodi:nodetypes="cccccczc" /><rect
       style="fill:#e98888;fill-opacity:1;stroke:#413835;stroke-width:1.53952;stroke-linecap:round;stroke-linejoin:round;stroke-dasharray:none;stroke-opacity:1"
       id="rect69-5-0-7"
       width="12.048273"
       height="6.2269945"
       x="-50.94833"
       y="336.4729"
       ry="1.4312042"
       transform="matrix(0.56532875,-0.82486569,0.81542858,0.57885769,0,0)" /><rect
       style="fill:#ffffff;fill-opacity:1;stroke:#ffeaa0;stroke-width:1.77913;stroke-linecap:round;stroke-linejoin:round;stroke-dasharray:none;stroke-opacity:0"
       id="rect76-1-4-4"
       width="10.54257"
       height="1.4969786"
       x="-50.165359"
       y="340.54446"
       ry="0"
       transform="matrix(0.56532875,-0.82486569,0.81542858,0.57885769,0,0)" /><rect
       style="fill:#e98888;fill-opacity:1;stroke:#413835;stroke-width:1.53952;stroke-linecap:round;stroke-linejoin:round;stroke-dasharray:none;stroke-opacity:1"
       id="rect69-5-0"
       width="12.048273"
       height="6.2269945"
       x="-60.305"
       y="338.17926"
       ry="1.4312042"
       transform="matrix(0.56532875,-0.82486569,0.81542858,0.5788577,0,0)" /><rect
       style="fill:#ffffff;fill-opacity:1;stroke:#ffeaa0;stroke-width:1.77913;stroke-linecap:round;stroke-linejoin:round;stroke-dasharray:none;stroke-opacity:0"
       id="rect76-1-4"
       width="10.54257"
       height="1.4969786"
       x="-59.52203"
       y="342.25082"
       ry="0"
       transform="matrix(0.56532875,-0.82486569,0.81542858,0.5788577,0,0)" /><path
       style="opacity:1;fill:#ffffff;fill-opacity:0;stroke:#ffeaa0;stroke-width:1;stroke-dasharray:none;stroke-opacity:1"
       d="m 230.93416,226.78479 c 6.0269,1.08376 9.92812,5.71032 14.88052,8.58491"
       id="path94"
       sodipodi:nodetypes="cc" /><path
       style="opacity:1;fill:#ffffff;fill-opacity:0;stroke:#ffeaa0;stroke-width:1;stroke-dasharray:none;stroke-opacity:1"
       d="m 224.35239,257.40431 c 3.62474,-5.06406 6.53408,-10.55318 10.15882,-17.88524 l 6.58176,5.15095"
       id="path95"
       sodipodi:nodetypes="ccc" /><path
       style="opacity:1;fill:#413835;fill-opacity:1;stroke:#ffeaa0;stroke-width:1;stroke-dasharray:none;stroke-opacity:0"
       d="m 199.74231,239.23291 c -8.58096,-7.31883 -9.00653,-6.76735 -7.15409,-14.73744 0,0 1.09621,-8.20878 5.29402,-4.57862 3.69407,3.19453 -1.86394,6.84691 0.57709,9.80704 0.65671,0.79635 2.81661,-2.32778 5.0031,-0.0775 0.39336,4.40795 0.51412,9.50568 -3.72012,9.58648 z"
       id="path96"
       sodipodi:nodetypes="ccsscc" /></g></svg>
